<svg xmlns="http://www.w3.org/2000/svg" viewBox="0 0 166.44 38.95"><title>logo-static</title><g id="Layer_2" data-name="Layer 2"><g id="Layer_1-2" data-name="Layer 1"><path d="M164.58,11.8c-2.71,0-5.15,1.34-5.15,3.65V11.8H153.6V28.23a2.66,2.66,0,0,0,2.64,2.8h3.19V19.93s0-2.3,1.94-2.3H164c1.71,0,2.44-.82,2.44-2.53V11.8Z" style="fill:#f1f2f2"/><path d="M120,31h-5.2V28.74h-.11A6.6,6.6,0,0,1,109.39,31a5.62,5.62,0,0,1-5.92-5.62c0-4.76,4.27-7,10.76-7V18.1c0-1-.52-2.36-3.33-2.36a10.33,10.33,0,0,0-5.06,1.39l-.44-1.53a2.49,2.49,0,0,1,1.68-3.07,17,17,0,0,1,4.83-.68c6.11,0,8.06,3.6,8.06,7.91V31Zm-5.55-9c-3,0-5.32.67-5.32,2.89A2,2,0,0,0,111.33,27a3.11,3.11,0,0,0,3-2.1,4.16,4.16,0,0,0,.11-1Z" style="fill:#f1f2f2"/><path d="M129.58,6.34v5.4h2.26a1.94,1.94,0,0,1,1.94,1.94v2.38h-4.2v6.82c0,2.27.54,3.31,2.31,3.31a9.78,9.78,0,0,0,1.73-.15v1.44A3.46,3.46,0,0,1,130.25,31h-.41a6.08,6.08,0,0,1-4.39-1.62c-1.08-1.12-1.62-2.93-1.62-5.59V16.05h-2.5V11.74h2.5a5.12,5.12,0,0,1,4-5Z" style="fill:#f1f2f2"/><path d="M99.72,11.94H96.21l0,1.49c-1-1.52-2.62-1.49-5.17-1.49-4.57,0-8.39,3.52-8.39,9.5,0,5.37,3.28,9.54,7.88,9.54,1.53,0,3.42,0,4.53-1.43v.77c0,3.43-1.81,4.2-4.55,4.2a10.18,10.18,0,0,1-2.76-.4A2.55,2.55,0,0,0,84.56,36L84.2,37.5a14.59,14.59,0,0,0,6.72,1.45,11.51,11.51,0,0,0,7.59-2.29c2.09-1.87,2.82-4.8,2.82-8.38l.14-15.3C101.48,12,101.12,11.94,99.72,11.94ZM92,25.91A3.69,3.69,0,0,1,88.34,22V20.65a3.64,3.64,0,1,1,7.26,0V22A3.69,3.69,0,0,1,92,25.91Z" style="fill:#3efffa"/><path d="M143.69,11.85a8.2,8.2,0,0,0-8.13,8.4v2.27a8.14,8.14,0,1,0,16.27,0V20.25A8.2,8.2,0,0,0,143.69,11.85Zm3.25,10.5a3.25,3.25,0,1,1-6.51,0V20.42a3.25,3.25,0,1,1,6.51,0Z" style="fill:#f1f2f2"/><path d="M72,20.61,70.3,14.75a4,4,0,0,0-3.72-2.81H62.89l6.3,17.38Z" style="fill:#3efffa"/><path d="M79.87,11.94a3.71,3.71,0,0,0-3.4,1.87L70.93,31h2.54c1.63,0,3.08-.49,3.65-2l6.29-17Z" style="fill:#3efffa"/><path d="M47.29,28.63a2.64,2.64,0,0,1,3.27-1.92,10.1,10.1,0,0,0,2.67.43c1.83,0,2.58-.63,2.58-1.63s-.6-1.47-2.86-2.23c-4-1.35-5.56-3.53-5.52-5.84,0-3.61,3.1-6.36,7.91-6.36a13,13,0,0,1,5.48,1.11l-.35,1.35a2.64,2.64,0,0,1-3.14,1.92,8.08,8.08,0,0,0-1.79-.22c-1.47,0-2.3.6-2.3,1.59s.75,1.39,3.14,2.23c3.69,1.27,5.24,3.14,5.28,6,0,3.62-2.86,6.28-8.42,6.28A13.73,13.73,0,0,1,47,30Z" style="fill:#3efffa"/><path d="M20.48,9.06l-3.64-.78a6.44,6.44,0,0,0-1.3-2.63l1.58-3.37a.5.5,0,0,0-.18-.63l-1.5-1a.5.5,0,0,0-.65.08L12.29,3.49a6.57,6.57,0,0,0-2.85-.2L7.35.22A.5.5,0,0,0,6.72.05L5.09.84a.5.5,0,0,0-.26.6L5.94,5A6.57,6.57,0,0,0,4.29,7.45l-3.71.3a.5.5,0,0,0-.46.47L0,10a.5.5,0,0,0,.4.53L4,11.34A6.44,6.44,0,0,0,5.34,14L3.76,17.34a.5.5,0,0,0,.18.63l1.5,1a.5.5,0,0,0,.65-.08l2.49-2.77a6.57,6.57,0,0,0,2.85.2l2.09,3.07a.5.5,0,0,0,.64.17l1.63-.79a.5.5,0,0,0,.26-.6l-1.11-3.54a6.57,6.57,0,0,0,1.65-2.46l3.71-.3a.5.5,0,0,0,.46-.47l.12-1.8A.5.5,0,0,0,20.48,9.06Zm-10-1.94A2.69,2.69,0,1,1,7.75,9.8,2.69,2.69,0,0,1,10.44,7.11Z" style="fill:#3efffa"/><path d="M40.71,26.07l-3-2.34a9,9,0,0,0,0-4.93l2.92-2.35a.64.64,0,0,0,.15-.82l-1.16-2a.64.64,0,0,0-.79-.27l-3.44,1.39a9.23,9.23,0,0,0-4.23-2.45l-.53-3.66A.64.64,0,0,0,30,8.1H27.73a.64.64,0,0,0-.64.54l-.56,3.66a9.23,9.23,0,0,0-4.36,2.53l-3.46-1.36a.64.64,0,0,0-.79.28l-1.14,2a.64.64,0,0,0,.16.82l2.95,2.32A9.05,9.05,0,0,0,20,23.81l-3,2.37a.64.64,0,0,0-.15.82L18,29a.64.64,0,0,0,.79.27l3.54-1.42a9.23,9.23,0,0,0,4.12,2.35L27,34a.64.64,0,0,0,.63.55h2.29a.64.64,0,0,0,.64-.54l.58-3.8a9.23,9.23,0,0,0,4.25-2.42l3.55,1.39a.64.64,0,0,0,.79-.28l1.14-2A.64.64,0,0,0,40.71,26.07Zm-7-4.74a4.83,4.83,0,1,1-4.81-4.84A4.83,4.83,0,0,1,33.66,21.33Z" style="fill:#f1f2f2"/><circle cx="28.83" cy="21.31" r="2.56" style="fill:#f1f2f2"/></g></g></svg>